<svg id="svg" version="1.1" xmlns="http://www.w3.org/2000/svg" xmlns:xlink="http://www.w3.org/1999/xlink" width="400" height="372.9206963249517" viewBox="0, 0, 400,372.9206963249517"><g id="svgg"><path id="path0" d="M0.000 186.567 L 0.000 373.134 200.000 373.134 L 400.000 373.134 400.000 186.567 L 400.000 0.000 200.000 0.000 L 0.000 0.000 0.000 186.567 M210.261 47.766 C 236.267 51.133,259.526 67.675,271.377 91.231 C 271.996 92.463,272.784 93.890,273.128 94.403 C 273.472 94.916,274.134 96.343,274.600 97.575 C 275.579 100.166,275.976 101.166,276.488 102.332 C 276.922 103.321,279.190 112.600,279.816 115.947 C 281.149 123.073,281.016 139.113,279.596 142.537 L 279.055 143.843 278.101 142.724 C 277.576 142.108,275.085 139.422,272.566 136.754 C 267.114 130.981,263.107 126.556,261.247 124.254 C 259.752 122.404,257.852 120.308,252.799 114.933 C 250.951 112.968,248.097 109.854,246.455 108.012 C 244.813 106.171,243.249 104.524,242.978 104.352 C 242.708 104.180,242.204 103.574,241.858 103.005 C 241.144 101.831,236.449 96.575,231.675 91.604 C 227.772 87.541,226.337 85.968,223.784 82.951 C 221.271 79.981,221.184 79.994,217.715 83.862 C 216.105 85.658,212.761 89.142,210.285 91.604 C 207.809 94.067,204.524 97.451,202.985 99.124 C 201.446 100.798,198.402 104.072,196.221 106.400 C 194.040 108.729,191.801 111.180,191.244 111.847 C 189.832 113.539,188.886 113.415,186.977 111.287 C 186.102 110.313,183.931 107.985,182.152 106.115 C 180.373 104.245,177.274 100.937,175.265 98.763 C 171.363 94.542,171.396 94.557,169.272 96.082 C 167.777 97.155,162.299 101.809,161.188 102.950 C 160.209 103.955,155.439 107.959,147.588 114.366 C 145.073 116.418,141.204 119.692,138.990 121.642 C 136.775 123.591,133.626 126.362,131.990 127.799 C 130.355 129.235,128.309 130.914,127.443 131.530 C 126.577 132.146,124.876 133.513,123.662 134.569 C 117.232 140.161,117.318 140.108,116.966 138.707 C 116.509 136.886,117.044 118.875,117.661 115.299 C 118.912 108.050,121.506 99.933,124.518 93.843 C 130.139 82.479,140.053 69.883,147.201 65.022 C 148.022 64.464,149.388 63.416,150.237 62.694 C 153.758 59.696,165.079 53.363,168.470 52.495 C 168.881 52.390,170.224 51.931,171.455 51.475 C 182.895 47.239,196.297 45.958,210.261 47.766 M245.586 127.483 C 245.962 127.823,246.269 128.244,246.269 128.420 C 246.269 128.881,247.475 131.551,250.370 137.500 C 253.764 144.473,256.913 151.063,258.472 154.457 C 259.174 155.984,260.255 158.285,260.875 159.570 C 262.778 163.516,263.418 163.239,252.019 163.405 C 249.294 163.445,249.289 163.469,249.461 174.670 C 249.542 179.880,249.612 184.844,249.617 185.702 C 249.629 187.635,250.042 187.808,254.568 187.773 C 256.584 187.758,257.928 187.907,258.087 188.163 C 258.467 188.779,249.653 196.642,248.581 196.642 C 248.386 196.642,247.995 196.924,247.714 197.270 C 245.965 199.414,232.618 206.766,226.306 209.063 C 209.242 215.272,187.803 215.288,171.091 209.106 C 164.885 206.810,152.934 200.299,150.169 197.708 C 149.543 197.121,148.872 196.637,148.676 196.631 C 147.858 196.608,139.179 189.086,139.179 188.401 C 139.179 188.221,139.599 187.987,140.112 187.880 C 140.625 187.774,141.465 187.599,141.978 187.493 C 142.697 187.344,142.911 187.066,142.913 186.280 C 142.916 184.648,143.660 182.368,144.594 181.130 C 145.070 180.499,145.872 179.240,146.377 178.331 C 147.557 176.206,149.889 174.415,152.443 173.673 C 153.555 173.350,154.572 172.911,154.703 172.698 C 155.203 171.889,158.085 170.912,159.993 170.904 C 163.586 170.889,165.772 172.483,167.262 176.203 C 167.874 177.733,168.540 178.623,169.758 179.542 C 171.811 181.090,172.688 182.545,172.998 184.920 C 173.346 187.582,173.507 187.687,177.254 187.687 C 182.211 187.687,181.716 189.094,181.716 174.973 C 181.716 161.435,181.625 161.940,184.087 161.940 C 186.724 161.940,186.954 162.807,180.971 150.187 C 177.444 142.745,176.242 140.145,175.021 137.313 C 174.357 135.774,173.074 133.061,172.168 131.284 C 171.263 129.507,170.522 127.786,170.522 127.459 C 170.522 126.529,244.558 126.553,245.586 127.483 M167.868 133.886 C 168.253 134.642,169.171 136.353,169.909 137.687 C 171.625 140.786,171.812 139.863,167.772 148.198 C 165.849 152.165,163.244 157.551,161.985 160.168 L 159.695 164.925 155.469 164.925 C 150.221 164.925,150.402 165.226,152.803 160.499 C 155.953 154.301,160.685 144.267,161.210 142.674 C 161.472 141.881,162.499 139.616,163.492 137.642 C 164.486 135.667,165.299 133.918,165.299 133.753 C 165.299 131.966,166.936 132.050,167.868 133.886 M225.815 169.880 C 225.383 170.401,225.485 189.042,225.922 189.480 C 226.241 189.798,238.914 189.575,239.247 189.245 C 239.945 188.554,239.703 170.436,238.989 169.914 C 238.020 169.205,226.400 169.175,225.815 169.880 M190.674 171.264 C 190.108 172.322,190.194 179.938,190.781 180.741 C 191.301 181.452,201.791 181.546,202.489 180.846 C 203.021 180.312,202.866 171.747,202.313 171.195 C 201.438 170.318,191.148 170.379,190.674 171.264 M206.972 171.066 C 205.925 172.113,206.049 180.413,207.121 180.987 C 208.010 181.463,216.918 181.344,217.411 180.849 C 217.925 180.333,217.784 171.739,217.252 171.207 C 216.449 170.404,207.754 170.285,206.972 171.066 M228.750 179.139 C 229.322 180.207,228.888 181.801,228.069 181.644 C 227.338 181.503,227.073 180.562,227.399 179.262 C 227.678 178.151,228.196 178.104,228.750 179.139 M251.539 220.870 C 251.912 221.938,251.997 221.969,255.225 222.222 C 258.888 222.508,258.962 222.571,259.504 225.840 C 259.743 227.285,260.643 227.764,261.063 226.669 C 261.302 226.046,262.641 225.203,262.931 225.493 C 263.030 225.592,262.933 225.984,262.715 226.363 C 262.497 226.742,262.073 227.803,261.772 228.721 L 261.224 230.389 262.515 231.453 C 264.184 232.828,264.135 233.154,262.044 234.587 C 260.064 235.944,259.943 235.921,259.114 234.033 C 257.849 231.154,257.713 230.970,256.840 230.970 C 256.271 230.970,255.960 231.196,255.941 231.623 C 255.926 231.982,255.691 231.604,255.421 230.784 C 255.150 229.963,254.911 229.573,254.890 229.917 C 254.805 231.274,253.795 231.716,250.777 231.716 C 247.931 231.716,246.467 231.101,246.670 229.991 C 246.994 228.224,246.574 226.448,245.760 226.139 C 244.505 225.662,243.846 221.022,244.979 220.642 C 245.218 220.562,245.362 221.271,245.352 222.476 L 245.336 224.440 247.948 224.440 L 250.560 224.440 250.768 223.134 C 251.108 221.002,250.654 220.529,248.214 220.473 C 246.310 220.429,246.221 220.395,247.388 220.149 C 250.276 219.541,251.128 219.689,251.539 220.870 M141.045 221.455 C 141.045 221.968,140.888 222.388,140.697 222.388 C 140.505 222.388,140.242 222.724,140.112 223.134 C 139.796 224.131,139.035 224.097,139.297 223.098 C 139.697 221.567,137.558 220.341,136.754 221.642 C 136.627 221.847,136.217 222.015,135.842 222.015 C 135.467 222.015,134.899 222.414,134.579 222.902 C 134.228 223.437,133.466 223.889,132.659 224.041 C 131.452 224.267,130.180 224.946,127.705 226.684 C 125.003 228.582,129.738 236.194,133.621 236.194 C 136.697 236.194,140.429 232.088,139.557 229.664 C 139.033 228.207,138.800 224.358,139.286 225.187 C 142.597 230.829,139.623 237.026,133.606 237.026 C 131.562 237.026,128.358 235.216,128.358 234.061 C 128.358 233.885,127.861 233.159,127.254 232.449 C 126.647 231.738,126.143 230.873,126.135 230.526 C 126.126 230.179,125.951 229.791,125.746 229.664 C 124.704 229.020,128.076 224.254,129.574 224.254 C 130.259 224.254,133.338 222.700,134.216 221.911 C 134.714 221.464,135.889 221.065,137.201 220.897 C 140.986 220.413,141.045 220.421,141.045 221.455 M250.302 222.687 L 250.418 224.292 248.250 224.180 C 245.833 224.054,244.903 222.544,246.516 221.364 C 248.116 220.193,250.174 220.912,250.302 222.687 M138.502 223.881 C 138.438 224.804,138.568 226.701,138.792 228.095 C 140.102 236.260,132.448 238.420,128.157 231.097 C 126.395 228.091,128.242 225.449,132.805 224.447 C 133.455 224.304,134.357 223.798,134.810 223.322 C 136.688 221.349,138.658 221.647,138.502 223.881 M253.109 223.050 C 252.869 223.203,252.617 223.914,252.549 224.630 C 252.427 225.918,252.403 225.935,250.373 226.123 C 246.287 226.503,245.985 229.901,250.001 230.312 C 252.570 230.576,253.141 230.237,253.358 228.323 L 253.545 226.679 255.401 226.562 C 258.008 226.397,258.782 225.435,257.982 223.351 C 257.741 222.722,253.989 222.490,253.109 223.050 M257.682 224.066 C 258.091 225.695,257.675 226.072,255.336 226.193 L 253.172 226.306 253.058 228.078 L 252.944 229.851 250.766 229.851 C 248.459 229.851,248.134 229.598,248.134 227.808 C 248.134 226.831,248.759 226.493,250.560 226.493 C 252.423 226.493,252.985 226.155,252.985 225.035 C 252.985 222.945,257.184 222.079,257.682 224.066 M131.810 226.115 C 129.785 227.350,130.446 230.052,133.306 232.233 C 135.567 233.958,136.233 233.227,135.825 229.466 C 135.380 225.357,134.397 224.538,131.810 226.115 M134.883 227.098 C 136.364 230.642,135.313 233.541,133.209 231.716 C 132.351 230.972,132.440 230.825,133.675 230.951 C 134.473 231.032,134.531 230.045,133.827 228.370 C 133.306 227.133,132.090 227.527,132.090 228.933 C 132.090 229.243,131.863 229.367,131.530 229.239 C 130.446 228.824,130.856 227.015,132.183 226.361 C 133.929 225.500,134.252 225.589,134.883 227.098 M265.610 229.605 C 268.022 233.301,268.517 234.530,267.896 235.279 C 267.165 236.159,263.446 238.219,261.615 238.757 C 260.541 239.072,259.293 239.910,257.964 241.208 L 255.944 243.181 256.340 244.948 C 257.704 251.033,252.909 257.811,245.773 259.886 C 241.184 261.220,237.587 257.676,237.719 251.951 C 237.747 250.724,237.784 250.670,238.035 251.495 C 239.127 255.085,241.459 256.935,244.385 256.532 C 245.421 256.390,246.269 256.139,246.269 255.976 C 246.269 255.812,246.715 255.566,247.260 255.429 C 248.552 255.105,253.120 250.686,254.093 248.819 C 255.450 246.215,254.920 244.952,251.291 242.153 L 249.193 240.534 250.063 239.865 C 251.041 239.113,252.994 238.964,253.624 239.594 C 255.055 241.025,257.942 237.458,256.933 235.506 C 256.191 234.071,256.158 231.867,256.875 231.592 C 257.244 231.451,257.761 232.123,258.565 233.791 C 259.906 236.571,260.043 236.610,262.407 234.875 C 264.479 233.355,264.585 232.768,263.046 231.331 C 261.886 230.247,261.816 229.344,262.751 227.519 C 263.309 226.431,263.745 226.749,265.610 229.605 M216.724 229.048 C 216.834 230.195,216.777 230.270,215.978 230.024 C 214.810 229.665,214.801 229.650,215.080 228.537 C 215.440 227.105,216.571 227.457,216.724 229.048 M202.910 232.959 C 202.979 234.259,202.871 235.075,202.631 235.075 C 202.415 235.075,202.239 234.521,202.239 233.843 C 202.239 233.166,202.049 232.422,201.816 232.189 C 201.291 231.664,201.698 230.479,202.332 230.689 C 202.613 230.781,202.843 231.684,202.910 232.959 M216.429 233.885 C 216.606 235.053,217.194 238.442,217.737 241.418 C 219.679 252.082,219.820 254.659,218.548 256.266 C 217.710 257.323,217.417 256.027,214.890 240.112 C 214.662 238.675,214.325 237.013,214.141 236.418 C 213.626 234.755,213.735 233.691,214.594 232.008 C 215.541 230.152,215.923 230.544,216.429 233.885 M201.866 234.091 C 201.866 234.782,202.201 235.774,202.612 236.296 C 203.539 237.475,203.546 238.061,202.652 239.624 C 202.161 240.483,201.879 241.937,201.723 244.403 C 200.619 261.934,200.687 261.544,198.369 263.658 C 193.752 267.869,186.333 267.729,183.100 263.369 C 181.499 261.210,181.587 255.224,183.255 252.765 L 183.992 251.679 183.763 255.037 C 183.403 260.304,185.940 263.433,190.570 263.433 C 197.402 263.433,198.728 259.557,199.009 238.755 C 199.064 234.614,199.110 234.378,200.000 233.637 C 201.354 232.510,201.866 232.635,201.866 234.091 M156.116 234.486 C 156.004 234.778,155.708 235.096,155.457 235.192 C 153.475 235.952,149.426 242.639,149.831 244.484 C 150.082 245.625,152.398 248.507,153.064 248.507 C 153.265 248.507,153.875 248.816,154.420 249.193 C 156.923 250.926,165.464 251.988,166.280 250.668 C 166.609 250.135,164.640 248.246,162.220 246.774 C 157.421 243.854,161.285 239.302,169.963 237.653 C 175.251 236.649,178.744 239.025,175.719 241.570 L 174.573 242.534 173.352 241.603 C 172.681 241.091,171.895 240.676,171.607 240.682 C 171.318 240.687,171.544 240.978,172.108 241.328 C 172.673 241.678,173.134 242.177,173.134 242.437 C 173.134 243.226,174.666 242.969,175.991 241.959 C 176.677 241.435,177.239 240.689,177.239 240.302 C 177.239 239.914,177.407 239.493,177.612 239.366 C 178.548 238.787,177.904 241.314,176.821 242.470 C 174.780 244.647,173.314 244.751,172.650 242.764 C 172.495 242.302,167.506 242.246,165.205 242.680 C 163.185 243.061,163.325 242.024,165.392 241.292 C 166.522 240.892,166.731 240.722,166.120 240.701 C 164.944 240.661,163.060 241.687,163.060 242.368 C 163.060 242.901,163.592 243.329,168.283 246.577 C 170.977 248.442,171.349 249.477,170.133 251.724 C 168.610 254.538,166.061 254.946,156.343 253.931 C 155.110 253.803,155.308 253.895,157.090 254.280 C 164.756 255.938,171.269 254.112,171.269 250.306 C 171.269 249.964,171.375 249.957,171.696 250.278 C 172.293 250.876,171.528 252.603,169.942 254.236 C 168.649 255.568,165.324 256.162,160.261 255.965 C 158.975 255.916,156.736 256.280,155.379 256.760 C 155.157 256.839,154.334 256.265,153.551 255.485 C 152.650 254.588,151.847 254.108,151.365 254.179 C 150.893 254.248,150.031 253.757,149.105 252.892 C 148.281 252.122,147.495 251.493,147.357 251.493 C 147.218 251.493,146.903 250.947,146.656 250.280 C 146.409 249.613,146.053 248.776,145.864 248.419 C 145.392 247.524,145.419 243.549,145.896 243.843 C 146.101 243.970,146.269 244.990,146.269 246.109 C 146.269 249.523,149.483 252.865,153.358 253.478 L 154.664 253.685 153.284 253.274 C 147.329 251.500,145.006 245.698,148.321 240.880 C 150.763 237.329,156.983 232.228,156.116 234.486 M158.520 234.246 C 158.274 234.820,151.866 240.767,151.866 240.420 C 151.866 240.225,152.201 239.706,152.612 239.265 C 153.022 238.825,153.358 238.344,153.358 238.198 C 153.358 237.709,157.557 233.955,158.104 233.955 C 158.401 233.955,158.588 234.086,158.520 234.246 M213.433 235.560 C 213.433 236.442,213.591 237.324,213.784 237.519 C 214.192 237.930,214.422 242.419,214.054 242.787 C 213.917 242.923,213.781 242.629,213.751 242.133 C 213.667 240.766,213.601 240.229,213.340 238.806 C 212.826 236.005,212.710 233.955,213.067 233.955 C 213.268 233.955,213.433 234.677,213.433 235.560 M268.947 236.189 C 268.704 236.577,268.078 237.115,267.555 237.384 C 267.032 237.652,266.521 237.976,266.418 238.103 C 266.006 238.615,262.288 240.299,261.571 240.299 C 261.149 240.299,260.049 240.995,259.126 241.846 C 256.905 243.893,256.584 243.451,258.694 241.249 C 259.735 240.162,260.890 239.371,261.799 239.121 C 263.320 238.704,268.082 236.076,268.477 235.436 C 268.604 235.231,268.861 235.157,269.048 235.272 C 269.242 235.393,269.199 235.785,268.947 236.189 M166.604 238.060 C 166.478 238.265,166.132 238.433,165.836 238.433 C 165.540 238.433,165.299 238.265,165.299 238.060 C 165.299 237.854,165.644 237.687,166.067 237.687 C 166.489 237.687,166.731 237.854,166.604 238.060 M198.402 240.200 C 198.316 240.767,198.244 240.392,198.241 239.366 C 198.238 238.340,198.308 237.875,198.397 238.334 C 198.486 238.793,198.488 239.633,198.402 240.200 M204.185 239.622 C 202.696 242.852,202.612 243.356,202.586 249.178 C 202.569 252.882,202.439 254.763,202.232 254.291 C 201.564 252.770,202.274 241.402,203.128 239.939 C 204.673 237.293,205.352 237.089,204.185 239.622 M161.194 240.428 C 161.194 240.499,160.858 240.945,160.448 241.418 C 159.941 242.002,159.701 242.104,159.701 241.736 C 159.701 241.152,160.410 240.299,160.896 240.299 C 161.060 240.299,161.194 240.357,161.194 240.428 M219.030 241.231 C 219.030 241.744,218.862 242.164,218.657 242.164 C 218.451 242.164,218.284 241.744,218.284 241.231 C 218.284 240.718,218.451 240.299,218.657 240.299 C 218.862 240.299,219.030 240.718,219.030 241.231 M159.521 245.009 C 159.621 245.470,160.682 246.447,162.061 247.345 C 163.363 248.194,164.822 249.306,165.302 249.817 L 166.175 250.746 164.847 250.746 C 163.864 250.746,163.369 250.518,162.944 249.869 C 162.628 249.387,161.779 248.712,161.057 248.369 C 159.327 247.548,158.209 246.074,158.209 244.614 C 158.209 243.121,159.089 242.052,159.246 243.353 C 159.304 243.828,159.428 244.573,159.521 245.009 M198.104 247.015 C 198.116 248.349,198.006 250.112,197.859 250.933 L 197.591 252.425 197.355 250.373 C 197.056 247.776,197.391 242.822,197.796 243.858 C 197.953 244.260,198.092 245.681,198.104 247.015 M214.902 245.616 C 214.881 247.010,214.835 247.094,214.521 246.308 C 214.199 245.504,214.356 244.030,214.764 244.030 C 214.853 244.030,214.915 244.743,214.902 245.616 M254.478 246.850 C 254.478 247.146,254.310 247.388,254.104 247.388 C 253.899 247.388,253.731 247.042,253.731 246.620 C 253.731 246.197,253.899 245.955,254.104 246.082 C 254.310 246.209,254.478 246.555,254.478 246.850 M236.940 248.834 C 236.940 251.597,236.511 253.472,236.160 252.239 C 235.814 251.019,235.751 247.582,236.070 247.264 C 236.673 246.660,236.940 247.142,236.940 248.834 M238.433 247.761 C 238.433 248.176,238.184 248.507,237.873 248.507 C 237.562 248.507,237.313 248.176,237.313 247.761 C 237.313 247.347,237.562 247.015,237.873 247.015 C 238.184 247.015,238.433 247.347,238.433 247.761 M257.836 248.857 C 257.836 254.235,249.391 261.913,243.452 261.935 C 240.758 261.945,239.092 260.488,237.376 256.623 C 237.307 256.469,237.437 256.343,237.665 256.343 C 237.892 256.343,238.254 256.805,238.468 257.369 C 241.238 264.654,254.578 258.922,256.767 249.506 C 257.264 247.367,257.836 247.020,257.836 248.857 M215.690 250.653 C 215.400 251.674,215.398 251.673,215.121 250.283 C 214.968 249.515,214.966 248.591,215.117 248.230 C 215.542 247.211,216.053 249.371,215.690 250.653 M161.113 250.315 C 161.220 250.637,161.040 250.771,160.615 250.689 C 160.249 250.618,159.875 250.334,159.783 250.058 C 159.676 249.737,159.855 249.602,160.281 249.685 C 160.646 249.755,161.021 250.039,161.113 250.315 M185.380 251.664 C 185.445 252.445,185.306 253.271,185.071 253.501 C 184.751 253.813,184.708 253.568,184.900 252.523 C 185.101 251.426,185.028 251.078,184.558 250.898 C 183.889 250.641,184.149 249.879,184.829 250.102 C 185.067 250.180,185.315 250.883,185.380 251.664 M216.309 254.193 C 216.219 254.658,216.143 254.366,216.139 253.545 C 216.135 252.724,216.208 252.344,216.301 252.701 C 216.395 253.058,216.398 253.729,216.309 254.193 M237.290 254.757 C 237.269 255.972,237.222 256.046,236.929 255.317 C 236.628 254.570,236.776 253.358,237.167 253.358 C 237.247 253.358,237.303 253.988,237.290 254.757 M181.556 256.628 C 181.094 257.090,180.915 256.333,181.207 255.157 L 181.515 253.918 181.642 255.166 C 181.712 255.853,181.673 256.511,181.556 256.628 M184.596 256.618 C 184.510 257.185,184.438 256.810,184.435 255.784 C 184.432 254.757,184.502 254.293,184.591 254.752 C 184.680 255.211,184.682 256.051,184.596 256.618 M220.129 255.730 C 219.770 256.061,219.720 256.004,219.908 255.473 C 220.041 255.097,220.169 254.594,220.193 254.354 C 220.216 254.114,220.316 254.230,220.414 254.611 C 220.512 254.991,220.384 255.495,220.129 255.730 M153.240 255.964 C 154.033 257.561,154.785 257.889,156.097 257.211 C 158.036 256.208,160.406 259.734,158.675 261.048 C 157.631 261.840,157.163 261.662,156.112 260.075 C 155.065 258.492,154.548 258.299,153.352 259.046 C 151.818 260.004,149.532 257.178,150.603 255.648 C 151.354 254.577,152.627 254.729,153.240 255.964 M197.084 258.705 C 196.765 259.365,196.695 259.100,196.706 257.276 C 196.719 255.064,196.723 255.054,197.097 256.466 C 197.357 257.447,197.353 258.148,197.084 258.705 M218.125 257.739 C 219.215 257.531,219.393 258.681,218.435 259.740 C 217.382 260.904,216.785 260.209,216.847 257.889 C 216.878 256.731,216.974 256.262,217.062 256.848 C 217.196 257.744,217.364 257.885,218.125 257.739 M150.000 257.739 C 150.000 258.942,152.170 260.130,153.299 259.546 C 154.790 258.775,154.678 258.732,155.632 260.430 C 156.088 261.242,156.706 261.999,157.004 262.114 C 157.822 262.428,160.075 260.886,160.075 260.013 C 160.075 259.030,160.972 259.331,161.124 260.364 C 161.210 260.948,160.837 261.410,159.696 262.130 C 157.368 263.600,157.300 263.596,155.660 261.872 C 154.446 260.596,154.040 260.363,153.672 260.731 C 152.953 261.450,151.696 261.279,150.900 260.354 C 149.393 258.604,148.107 255.516,149.440 256.850 C 149.748 257.158,150.000 257.558,150.000 257.739 M201.323 262.087 C 198.349 268.043,188.485 270.170,183.314 265.969 C 182.553 265.351,180.970 262.271,180.970 261.408 C 180.970 260.962,180.783 260.410,180.555 260.182 C 180.327 259.953,180.266 259.561,180.422 259.310 C 180.815 258.674,181.683 260.314,181.715 261.754 C 181.775 264.419,186.000 267.164,190.041 267.164 C 195.983 267.164,200.763 263.689,201.332 258.955 L 201.624 256.530 201.949 258.356 C 202.233 259.950,202.153 260.423,201.323 262.087 M139.284 270.551 C 142.257 271.664,145.959 273.420,154.104 277.580 C 158.719 279.936,158.968 280.038,163.433 281.393 C 170.472 283.530,177.317 281.611,185.433 275.226 C 191.085 270.778,196.096 269.828,205.224 271.470 C 205.942 271.600,207.242 272.027,208.112 272.420 C 208.982 272.813,209.997 273.134,210.369 273.134 C 210.741 273.134,211.204 273.281,211.399 273.461 C 211.594 273.641,213.265 274.409,215.112 275.169 C 216.959 275.929,219.116 276.873,219.905 277.268 C 220.694 277.662,221.544 277.985,221.794 277.985 C 222.043 277.985,222.943 278.321,223.792 278.731 C 224.642 279.142,225.671 279.478,226.079 279.478 C 226.488 279.478,226.908 279.617,227.013 279.787 C 227.182 280.061,228.252 280.344,232.276 281.177 C 238.336 282.431,241.566 282.282,249.353 280.386 C 249.920 280.248,250.476 279.987,250.587 279.806 C 250.699 279.625,251.070 279.478,251.412 279.478 C 251.753 279.478,254.052 278.481,256.520 277.262 C 269.620 270.795,276.247 271.455,289.570 280.552 C 296.459 285.256,296.809 286.005,290.813 283.209 C 289.053 282.388,287.459 281.716,287.272 281.716 C 287.085 281.716,286.220 281.404,285.350 281.023 C 282.409 279.733,281.657 279.465,278.792 278.684 C 274.803 277.597,270.231 277.384,267.031 278.137 C 264.507 278.731,263.621 279.118,256.805 282.603 C 246.227 288.012,231.039 288.434,221.675 283.579 C 221.349 283.410,220.494 283.026,219.776 282.726 C 219.058 282.426,216.707 281.421,214.552 280.494 C 202.228 275.189,196.342 274.510,191.333 277.814 C 190.567 278.318,189.827 278.731,189.687 278.731 C 189.547 278.731,188.158 279.695,186.600 280.873 C 179.613 286.157,176.526 287.340,169.590 287.391 C 163.478 287.436,160.369 286.501,150.207 281.562 C 137.980 275.619,135.498 274.905,131.341 276.131 C 125.598 277.825,109.468 277.997,105.648 276.405 C 104.534 275.941,104.475 275.958,110.261 275.060 C 111.698 274.838,114.049 274.387,115.485 274.059 C 116.922 273.732,118.517 273.384,119.030 273.286 C 122.131 272.697,123.939 272.222,124.107 271.951 C 124.212 271.781,124.728 271.642,125.253 271.642 C 125.778 271.642,127.238 271.316,128.496 270.917 C 134.325 269.072,135.250 269.040,139.284 270.551 " stroke="none" fill="#84cbf3" fill-rule="evenodd"></path><path id="path1" d="M170.522 127.459 C 170.522 127.786,171.263 129.507,172.168 131.284 C 173.074 133.061,174.357 135.774,175.021 137.313 C 176.242 140.145,177.444 142.745,180.971 150.187 C 186.954 162.807,186.724 161.940,184.087 161.940 C 181.625 161.940,181.716 161.435,181.716 174.973 C 181.716 189.094,182.211 187.687,177.254 187.687 C 173.507 187.687,173.346 187.582,172.998 184.920 C 172.688 182.545,171.811 181.090,169.758 179.542 C 168.540 178.623,167.874 177.733,167.262 176.203 C 165.772 172.483,163.586 170.889,159.993 170.904 C 158.085 170.912,155.203 171.889,154.703 172.698 C 154.572 172.911,153.555 173.350,152.443 173.673 C 149.889 174.415,147.557 176.206,146.377 178.331 C 145.872 179.240,145.070 180.499,144.594 181.130 C 143.660 182.368,142.916 184.648,142.913 186.280 C 142.911 187.066,142.697 187.344,141.978 187.493 C 141.465 187.599,140.625 187.774,140.112 187.880 C 139.599 187.987,139.179 188.221,139.179 188.401 C 139.179 189.086,147.858 196.608,148.676 196.631 C 148.872 196.637,149.543 197.121,150.169 197.708 C 152.934 200.299,164.885 206.810,171.091 209.106 C 187.803 215.288,209.242 215.272,226.306 209.063 C 232.618 206.766,245.965 199.414,247.714 197.270 C 247.995 196.924,248.386 196.642,248.581 196.642 C 249.653 196.642,258.467 188.779,258.087 188.163 C 257.928 187.907,256.584 187.758,254.568 187.773 C 250.042 187.808,249.629 187.635,249.617 185.702 C 249.612 184.844,249.542 179.880,249.461 174.670 C 249.289 163.469,249.294 163.445,252.019 163.405 C 263.418 163.239,262.778 163.516,260.875 159.570 C 260.255 158.285,259.174 155.984,258.472 154.457 C 256.913 151.063,253.764 144.473,250.370 137.500 C 247.475 131.551,246.269 128.881,246.269 128.420 C 246.269 128.244,245.962 127.823,245.586 127.483 C 244.558 126.553,170.522 126.529,170.522 127.459 M165.908 132.781 C 165.573 133.151,165.299 133.589,165.299 133.753 C 165.299 133.918,164.486 135.667,163.492 137.642 C 162.499 139.616,161.472 141.881,161.210 142.674 C 160.685 144.267,155.953 154.301,152.803 160.499 C 150.402 165.226,150.221 164.925,155.469 164.925 L 159.695 164.925 161.985 160.168 C 163.244 157.551,165.849 152.165,167.772 148.198 C 171.812 139.863,171.625 140.786,169.909 137.687 C 169.171 136.353,168.253 134.642,167.868 133.886 C 166.977 132.131,166.659 131.951,165.908 132.781 M238.989 169.914 C 239.703 170.436,239.945 188.554,239.247 189.245 C 238.914 189.575,226.241 189.798,225.922 189.480 C 225.485 189.042,225.383 170.401,225.815 169.880 C 226.400 169.175,238.020 169.205,238.989 169.914 M202.313 171.195 C 202.866 171.747,203.021 180.312,202.489 180.846 C 201.791 181.546,191.301 181.452,190.781 180.741 C 190.194 179.938,190.108 172.322,190.674 171.264 C 191.148 170.379,201.438 170.318,202.313 171.195 M217.252 171.207 C 217.784 171.739,217.925 180.333,217.411 180.849 C 216.918 181.344,208.010 181.463,207.121 180.987 C 206.049 180.413,205.925 172.113,206.972 171.066 C 207.754 170.285,216.449 170.404,217.252 171.207 M227.399 179.262 C 227.073 180.562,227.338 181.503,228.069 181.644 C 228.888 181.801,229.322 180.207,228.750 179.139 C 228.196 178.104,227.678 178.151,227.399 179.262 M246.516 221.364 C 244.903 222.544,245.833 224.054,248.250 224.180 L 250.418 224.292 250.302 222.687 C 250.174 220.912,248.116 220.193,246.516 221.364 M136.381 222.272 C 135.970 222.374,135.264 222.846,134.810 223.322 C 134.357 223.798,133.455 224.304,132.805 224.447 C 128.242 225.449,126.395 228.091,128.157 231.097 C 132.448 238.420,140.102 236.260,138.792 228.095 C 138.568 226.701,138.438 224.804,138.502 223.881 C 138.627 222.097,138.250 221.811,136.381 222.272 M253.433 223.582 C 253.187 223.828,252.985 224.482,252.985 225.035 C 252.985 226.155,252.423 226.493,250.560 226.493 C 248.759 226.493,248.134 226.831,248.134 227.808 C 248.134 229.598,248.459 229.851,250.766 229.851 L 252.944 229.851 253.058 228.078 L 253.172 226.306 255.336 226.193 C 257.675 226.072,258.091 225.695,257.682 224.066 C 257.420 223.021,254.344 222.670,253.433 223.582 M135.118 226.201 C 136.216 228.251,136.135 233.209,135.003 233.209 C 133.516 233.209,130.601 229.686,130.598 227.886 C 130.596 225.902,134.232 224.545,135.118 226.201 M262.751 227.519 C 261.816 229.344,261.886 230.247,263.046 231.331 C 264.585 232.768,264.479 233.355,262.407 234.875 C 260.043 236.610,259.906 236.571,258.565 233.791 C 257.761 232.123,257.244 231.451,256.875 231.592 C 256.158 231.867,256.191 234.071,256.933 235.506 C 257.942 237.458,255.055 241.025,253.624 239.594 C 252.994 238.964,251.041 239.113,250.063 239.865 L 249.193 240.534 251.291 242.153 C 254.920 244.952,255.450 246.215,254.093 248.819 C 253.120 250.686,248.552 255.105,247.260 255.429 C 246.715 255.566,246.269 255.812,246.269 255.976 C 246.269 256.139,245.421 256.390,244.385 256.532 C 241.459 256.935,239.127 255.085,238.035 251.495 C 237.784 250.670,237.747 250.724,237.719 251.951 C 237.587 257.676,241.184 261.220,245.773 259.886 C 252.909 257.811,257.704 251.033,256.340 244.948 L 255.944 243.181 257.964 241.208 C 259.293 239.910,260.541 239.072,261.615 238.757 C 263.446 238.219,267.165 236.159,267.896 235.279 C 268.517 234.530,268.022 233.301,265.610 229.605 C 263.745 226.749,263.309 226.431,262.751 227.519 M214.594 232.008 C 213.735 233.691,213.626 234.755,214.141 236.418 C 214.325 237.013,214.662 238.675,214.890 240.112 C 217.417 256.027,217.710 257.323,218.548 256.266 C 219.820 254.659,219.679 252.082,217.737 241.418 C 217.194 238.442,216.606 235.053,216.429 233.885 C 215.923 230.544,215.541 230.152,214.594 232.008 M200.000 233.637 C 199.110 234.378,199.064 234.614,199.009 238.755 C 198.728 259.557,197.402 263.433,190.570 263.433 C 185.940 263.433,183.403 260.304,183.763 255.037 L 183.992 251.679 183.255 252.765 C 181.587 255.224,181.499 261.210,183.100 263.369 C 186.333 267.729,193.752 267.869,198.369 263.658 C 200.687 261.544,200.619 261.934,201.723 244.403 C 201.879 241.937,202.161 240.483,202.652 239.624 C 203.546 238.061,203.539 237.475,202.612 236.296 C 202.201 235.774,201.866 234.782,201.866 234.091 C 201.866 232.635,201.354 232.510,200.000 233.637 M154.664 234.647 C 144.760 240.743,144.303 251.266,153.855 253.289 C 163.767 255.388,168.390 254.944,170.133 251.724 C 171.349 249.477,170.977 248.442,168.283 246.577 C 163.592 243.329,163.060 242.901,163.060 242.368 C 163.060 240.485,171.102 239.887,173.352 241.603 L 174.573 242.534 175.719 241.570 C 178.744 239.025,175.251 236.649,169.963 237.653 C 161.285 239.302,157.421 243.854,162.220 246.774 C 164.640 248.246,166.609 250.135,166.280 250.668 C 165.464 251.988,156.923 250.926,154.420 249.193 C 153.875 248.816,153.265 248.507,153.064 248.507 C 152.398 248.507,150.082 245.625,149.831 244.484 C 149.426 242.639,153.475 235.952,155.457 235.192 C 155.968 234.996,156.469 233.954,156.052 233.957 C 155.904 233.957,155.280 234.268,154.664 234.647 M150.603 255.648 C 149.532 257.178,151.818 260.004,153.352 259.046 C 154.548 258.299,155.065 258.492,156.112 260.075 C 157.163 261.662,157.631 261.840,158.675 261.048 C 160.406 259.734,158.036 256.208,156.097 257.211 C 154.785 257.889,154.033 257.561,153.240 255.964 C 152.627 254.729,151.354 254.577,150.603 255.648 " stroke="none" fill="#f8fafb" fill-rule="evenodd"></path><path id="path2" d="M129.571 86.749 C 129.109 86.952,128.731 87.259,128.731 87.433 C 128.731 87.607,128.185 88.280,127.516 88.930 C 124.368 91.992,119.379 105.339,117.661 115.299 C 117.044 118.875,116.509 136.886,116.966 138.707 C 117.318 140.108,117.232 140.161,123.662 134.569 C 124.876 133.513,126.577 132.146,127.443 131.530 C 128.309 130.914,130.355 129.235,131.990 127.799 C 133.626 126.362,136.775 123.591,138.990 121.642 C 141.204 119.692,145.073 116.418,147.588 114.366 C 155.439 107.959,160.209 103.955,161.188 102.950 C 162.299 101.809,167.777 97.155,169.272 96.082 C 171.396 94.557,171.363 94.542,175.265 98.763 C 177.274 100.937,180.373 104.245,182.152 106.115 C 183.931 107.985,186.102 110.313,186.977 111.287 C 189.079 113.630,189.725 113.583,192.081 110.914 C 193.123 109.734,195.289 107.401,196.894 105.729 C 198.500 104.058,200.149 102.271,200.560 101.758 C 200.970 101.246,203.825 98.188,206.903 94.963 C 209.981 91.737,212.749 88.697,213.053 88.206 C 213.357 87.715,213.735 87.313,213.892 87.313 C 214.050 87.313,214.179 87.104,214.179 86.847 C 214.179 86.252,130.924 86.155,129.571 86.749 M228.358 86.603 C 228.358 87.182,229.562 89.126,230.671 90.338 C 231.349 91.078,233.246 93.177,234.887 95.002 C 236.528 96.828,238.610 99.116,239.514 100.088 C 240.419 101.060,241.457 102.347,241.822 102.947 C 242.188 103.548,242.708 104.180,242.978 104.352 C 243.249 104.524,244.813 106.171,246.455 108.012 C 248.097 109.854,250.951 112.968,252.799 114.933 C 257.852 120.308,259.752 122.404,261.247 124.254 C 263.107 126.556,267.114 130.981,272.566 136.754 C 275.085 139.422,277.576 142.108,278.101 142.724 L 279.055 143.843 279.596 142.537 C 281.016 139.113,281.149 123.073,279.816 115.947 C 279.234 112.833,276.938 103.362,276.538 102.425 C 275.865 100.848,275.411 99.737,274.559 97.575 C 272.925 93.428,269.855 88.430,268.167 87.170 C 267.172 86.428,228.358 85.875,228.358 86.603 M132.090 269.836 C 131.371 270.032,129.754 270.519,128.496 270.917 C 127.238 271.316,125.778 271.642,125.253 271.642 C 124.728 271.642,124.212 271.781,124.107 271.951 C 123.939 272.222,122.131 272.697,119.030 273.286 C 118.517 273.384,116.922 273.732,115.485 274.059 C 114.049 274.387,111.698 274.838,110.261 275.060 C 104.475 275.958,104.534 275.941,105.648 276.405 C 109.468 277.997,125.598 277.825,131.341 276.131 C 133.444 275.510,136.723 275.678,139.072 276.526 C 141.109 277.261,142.195 277.721,145.989 279.457 C 149.300 280.972,159.312 281.693,158.809 280.380 C 158.684 280.055,158.582 279.719,158.582 279.634 C 158.582 279.548,158.351 279.478,158.068 279.478 C 157.785 279.478,155.812 278.551,153.683 277.419 C 140.390 270.350,135.935 268.785,132.090 269.836 M196.455 270.765 C 191.724 271.156,189.212 272.276,183.820 276.400 C 181.874 277.888,180.017 279.207,179.693 279.332 C 179.369 279.456,179.104 279.898,179.104 280.315 C 179.104 281.250,185.263 281.127,187.165 280.153 C 188.570 279.434,190.875 278.114,191.910 277.435 C 195.966 274.778,202.879 275.482,212.313 279.512 C 214.564 280.474,218.300 280.954,223.601 280.963 L 227.985 280.970 227.239 280.224 C 226.828 279.813,226.162 279.478,225.758 279.478 C 225.353 279.478,224.425 279.142,223.694 278.731 C 222.963 278.321,222.134 277.985,221.852 277.985 C 221.570 277.985,220.694 277.662,219.905 277.268 C 219.116 276.873,216.959 275.929,215.112 275.169 C 213.265 274.409,211.594 273.641,211.399 273.461 C 211.204 273.281,210.734 273.134,210.355 273.134 C 209.976 273.134,208.970 272.799,208.121 272.388 C 207.271 271.978,206.177 271.642,205.689 271.642 C 205.201 271.642,204.519 271.496,204.173 271.318 C 203.431 270.936,198.584 270.589,196.455 270.765 M263.060 274.205 C 261.726 274.751,258.692 276.160,256.317 277.338 C 253.943 278.515,251.736 279.478,251.413 279.478 C 250.925 279.478,250.373 280.187,250.373 280.814 C 250.373 281.732,260.319 280.648,262.981 279.440 C 267.988 277.168,278.280 277.310,282.155 279.705 C 282.704 280.044,288.462 280.852,288.611 280.611 C 289.166 279.713,283.874 276.616,277.765 274.264 C 273.642 272.677,266.861 272.649,263.060 274.205 " stroke="none" fill="#38b8e1" fill-rule="evenodd"></path><path id="path3" d="M192.537 47.419 C 186.255 47.831,182.495 48.334,180.597 49.014 C 179.674 49.345,178.617 49.618,178.248 49.621 C 177.880 49.624,175.865 50.228,173.771 50.962 C 171.676 51.697,169.375 52.471,168.657 52.684 C 167.938 52.897,165.756 53.869,163.806 54.845 C 158.446 57.529,157.952 57.806,157.456 58.403 C 157.204 58.707,156.836 58.955,156.638 58.955 C 156.173 58.955,150.805 62.663,150.454 63.227 C 150.307 63.463,149.599 64.065,148.881 64.563 C 145.061 67.212,145.081 67.906,148.974 67.929 C 152.902 67.953,246.823 67.940,249.813 67.916 L 252.052 67.897 250.000 66.031 C 245.377 61.827,245.211 61.695,241.290 59.132 C 239.886 58.214,238.598 57.463,238.429 57.463 C 238.260 57.463,238.066 57.336,237.998 57.181 C 237.540 56.144,223.885 50.653,219.216 49.629 C 218.396 49.449,217.052 49.106,216.231 48.867 C 215.410 48.628,213.396 48.299,211.754 48.135 C 210.112 47.971,208.517 47.750,208.209 47.643 C 207.170 47.283,196.860 47.136,192.537 47.419 M251.119 223.308 C 251.119 224.567,249.970 225.091,247.538 224.939 C 246.164 224.853,245.522 224.954,245.522 225.255 C 245.523 225.894,246.927 226.253,249.067 226.161 C 251.903 226.039,252.239 225.862,252.239 224.490 C 252.239 223.826,252.440 223.082,252.687 222.836 C 253.035 222.488,252.910 222.388,252.127 222.388 C 251.305 222.388,251.119 222.557,251.119 223.308 M132.649 226.493 C 132.518 226.704,132.832 226.866,133.374 226.866 C 133.899 226.866,134.328 226.698,134.328 226.493 C 134.328 226.287,134.002 226.119,133.604 226.119 C 133.206 226.119,132.776 226.287,132.649 226.493 M257.298 226.691 C 256.590 227.226,256.592 227.239,257.391 227.239 C 257.869 227.239,258.209 227.006,258.209 226.679 C 258.209 226.004,258.206 226.004,257.298 226.691 M253.731 227.217 C 253.731 227.867,254.363 227.965,255.076 227.425 C 255.746 226.918,255.730 226.889,254.757 226.878 C 254.193 226.871,253.731 227.024,253.731 227.217 M247.761 230.664 C 247.761 231.125,248.675 231.425,249.631 231.280 C 250.273 231.182,250.165 231.073,249.099 230.746 C 248.363 230.520,247.761 230.483,247.761 230.664 M261.327 231.530 C 261.635 231.838,262.099 232.090,262.358 232.090 C 262.623 232.090,262.511 231.849,262.105 231.542 C 261.154 230.823,260.612 230.815,261.327 231.530 M166.838 241.422 C 167.206 241.637,168.305 241.650,169.636 241.456 L 171.828 241.136 169.030 241.102 C 167.101 241.078,166.420 241.177,166.838 241.422 M149.627 252.557 C 149.627 252.968,151.328 253.851,151.793 253.681 C 151.999 253.606,151.596 253.254,150.897 252.900 C 150.198 252.545,149.627 252.391,149.627 252.557 M152.612 254.110 C 152.612 254.487,153.585 254.850,154.601 254.853 C 155.046 254.854,155.895 255.108,156.487 255.417 C 157.188 255.782,157.713 255.854,157.992 255.622 C 158.228 255.426,159.423 255.204,160.647 255.129 C 162.656 255.005,162.580 254.985,159.869 254.921 C 158.217 254.882,156.706 254.703,156.511 254.523 C 156.051 254.098,152.612 253.734,152.612 254.110 M151.866 260.448 C 151.866 260.653,152.118 260.821,152.425 260.821 C 152.733 260.821,152.985 260.653,152.985 260.448 C 152.985 260.243,152.733 260.075,152.425 260.075 C 152.118 260.075,151.866 260.243,151.866 260.448 M242.817 261.457 C 243.279 261.546,244.035 261.546,244.496 261.457 C 244.958 261.368,244.580 261.296,243.657 261.296 C 242.733 261.296,242.355 261.368,242.817 261.457 M190.833 267.499 C 191.507 267.763,193.284 267.624,193.284 267.307 C 193.284 267.229,192.570 267.176,191.698 267.190 C 190.576 267.209,190.323 267.299,190.833 267.499 M158.022 284.578 C 158.433 284.668,159.440 285.051,160.261 285.428 C 165.379 287.782,173.821 287.669,178.731 285.182 L 180.410 284.331 168.843 284.373 C 162.481 284.396,157.612 284.488,158.022 284.578 M227.146 284.598 C 227.813 284.681,228.358 284.887,228.358 285.056 C 228.358 285.358,228.961 285.518,232.649 286.189 C 236.881 286.958,238.986 287.037,242.584 286.561 C 244.629 286.290,246.388 285.929,246.494 285.758 C 246.599 285.588,247.180 285.448,247.783 285.448 C 248.387 285.448,248.881 285.290,248.881 285.098 C 248.881 284.906,249.426 284.681,250.093 284.598 C 250.760 284.516,245.597 284.448,238.619 284.448 C 231.642 284.448,226.479 284.516,227.146 284.598 " stroke="none" fill="#5a86e4" fill-rule="evenodd"></path><path id="path4" d="M192.071 47.288 C 192.943 47.367,194.370 47.367,195.243 47.288 C 196.115 47.210,195.401 47.145,193.657 47.145 C 191.912 47.145,191.199 47.210,192.071 47.288 M201.959 47.287 C 202.729 47.367,203.988 47.367,204.757 47.287 C 205.527 47.206,204.897 47.140,203.358 47.140 C 201.819 47.140,201.189 47.206,201.959 47.287 M210.168 48.018 C 210.527 48.112,211.115 48.112,211.474 48.018 C 211.833 47.925,211.539 47.848,210.821 47.848 C 210.103 47.848,209.809 47.925,210.168 48.018 M225.746 51.648 C 226.259 51.922,227.099 52.250,227.612 52.378 C 228.125 52.506,227.873 52.287,227.052 51.893 C 225.364 51.080,224.317 50.884,225.746 51.648 M228.762 52.738 C 229.122 53.029,232.090 54.083,232.090 53.920 C 232.090 53.697,229.525 52.612,228.997 52.612 C 228.782 52.612,228.677 52.669,228.762 52.738 M163.534 54.559 C 162.255 55.207,161.269 55.796,161.341 55.868 C 161.413 55.941,162.627 55.411,164.039 54.692 C 165.450 53.972,166.437 53.383,166.231 53.383 C 166.026 53.383,164.812 53.912,163.534 54.559 M233.582 54.661 C 233.582 54.916,235.867 56.049,236.037 55.878 C 236.118 55.797,235.599 55.452,234.883 55.110 C 234.168 54.769,233.582 54.567,233.582 54.661 M159.328 56.716 C 158.815 57.118,158.563 57.446,158.769 57.446 C 158.974 57.446,159.562 57.118,160.075 56.716 C 160.588 56.315,160.840 55.987,160.634 55.987 C 160.429 55.987,159.841 56.315,159.328 56.716 M238.060 57.076 C 238.060 57.289,238.212 57.463,238.398 57.463 C 238.584 57.463,239.886 58.214,241.290 59.132 C 245.211 61.695,245.377 61.827,250.000 66.031 L 252.052 67.897 249.813 67.916 C 246.823 67.940,152.902 67.953,148.974 67.929 C 145.081 67.906,145.061 67.212,148.881 64.563 C 149.599 64.065,150.307 63.463,150.454 63.227 C 150.800 62.672,156.169 58.955,156.626 58.955 C 156.817 58.955,157.294 58.588,157.685 58.140 C 158.376 57.346,158.355 57.348,156.903 58.210 C 154.376 59.710,150.064 62.654,149.823 63.045 C 149.697 63.248,148.720 64.002,147.651 64.719 C 145.049 66.467,138.317 73.026,135.568 76.493 C 131.490 81.635,126.947 88.639,127.398 89.090 C 127.503 89.194,127.886 88.763,128.248 88.131 C 128.611 87.498,129.246 86.872,129.659 86.740 C 130.712 86.401,214.179 86.319,214.179 86.656 C 214.179 86.938,213.830 87.401,211.601 90.077 C 209.809 92.229,214.148 87.809,217.703 83.862 C 221.186 79.994,221.272 79.981,223.780 82.951 C 225.979 85.554,230.712 90.574,229.851 89.389 C 229.085 88.336,228.358 87.010,228.358 86.666 C 228.358 86.167,266.863 86.364,267.788 86.867 C 268.234 87.110,269.049 87.856,269.599 88.524 C 270.867 90.065,270.755 89.847,267.771 84.962 C 261.689 75.001,254.124 67.316,243.156 59.956 C 238.463 56.807,238.060 56.579,238.060 57.076 M247.388 220.149 C 246.220 220.395,246.307 220.429,248.209 220.473 C 250.698 220.531,251.137 220.997,250.741 223.162 C 250.596 223.957,250.622 224.517,250.798 224.408 C 250.975 224.299,251.119 223.800,251.119 223.299 C 251.119 222.558,251.307 222.388,252.127 222.388 C 252.910 222.388,253.035 222.488,252.687 222.836 C 252.440 223.082,252.239 223.824,252.239 224.484 C 252.239 225.144,252.067 225.769,251.856 225.874 C 251.646 225.978,251.688 226.021,251.950 225.969 C 252.211 225.918,252.481 225.302,252.549 224.601 C 252.706 222.987,253.066 222.774,255.650 222.767 C 257.878 222.761,258.209 223.024,258.209 224.798 C 258.209 226.005,257.537 226.427,255.401 226.562 L 253.545 226.679 253.358 228.323 C 253.141 230.237,252.570 230.576,250.001 230.312 C 247.576 230.064,246.296 227.575,248.041 226.501 C 248.639 226.132,248.632 226.105,247.948 226.180 C 245.807 226.416,244.603 224.244,245.310 221.423 C 245.488 220.716,245.423 220.494,245.072 220.611 C 243.857 221.018,244.431 225.633,245.760 226.139 C 246.574 226.448,246.994 228.224,246.670 229.991 C 246.467 231.101,247.931 231.716,250.777 231.716 C 253.795 231.716,254.805 231.274,254.890 229.917 C 254.911 229.573,255.150 229.963,255.421 230.784 C 255.691 231.604,255.926 231.982,255.941 231.623 C 255.960 231.196,256.271 230.970,256.840 230.970 C 257.713 230.970,257.849 231.154,259.114 234.033 C 259.448 234.794,259.853 235.497,260.014 235.597 C 260.401 235.836,263.778 233.510,263.794 232.994 C 263.808 232.511,262.222 230.965,261.730 230.982 C 261.538 230.989,261.707 231.240,262.105 231.542 C 262.511 231.849,262.623 232.090,262.358 232.090 C 262.099 232.090,261.635 231.838,261.327 231.530 C 261.019 231.222,260.929 230.970,261.126 230.970 C 261.323 230.970,261.467 230.760,261.446 230.504 C 261.387 229.800,262.332 226.745,262.776 226.204 C 262.991 225.942,263.073 225.635,262.958 225.520 C 262.647 225.209,261.313 226.017,261.063 226.669 C 260.643 227.764,259.743 227.285,259.504 225.840 C 258.962 222.571,258.888 222.508,255.225 222.222 C 251.997 221.969,251.912 221.938,251.539 220.870 C 251.128 219.689,250.276 219.541,247.388 220.149 M137.201 220.897 C 135.889 221.065,134.714 221.464,134.216 221.911 C 133.338 222.700,130.259 224.254,129.574 224.254 C 128.076 224.254,124.704 229.020,125.746 229.664 C 125.951 229.791,126.126 230.179,126.135 230.526 C 126.143 230.873,126.647 231.738,127.254 232.449 C 127.861 233.159,128.358 233.885,128.358 234.061 C 128.358 235.216,131.562 237.026,133.606 237.026 C 139.623 237.026,142.597 230.829,139.286 225.187 C 138.800 224.358,139.033 228.207,139.557 229.664 C 139.861 230.509,139.076 233.039,138.214 233.991 C 137.758 234.495,137.741 234.665,138.130 234.826 C 138.399 234.937,138.200 234.996,137.687 234.958 C 137.068 234.912,136.790 235.061,136.862 235.400 C 136.931 235.726,136.762 235.832,136.396 235.692 C 135.674 235.415,134.637 235.788,134.909 236.228 C 135.214 236.721,132.933 236.366,132.272 235.817 C 131.956 235.556,131.600 235.440,131.480 235.560 C 131.212 235.827,129.424 233.938,127.955 231.836 C 126.015 229.058,126.679 226.448,129.558 225.534 C 130.079 225.369,130.180 225.204,129.876 225.015 C 129.621 224.858,130.413 224.530,131.721 224.253 C 133.382 223.900,134.171 223.525,134.587 222.891 C 134.902 222.409,135.467 222.015,135.842 222.015 C 136.217 222.015,136.627 221.847,136.754 221.642 C 137.558 220.341,139.697 221.567,139.297 223.098 C 139.035 224.097,139.796 224.131,140.112 223.134 C 140.242 222.724,140.505 222.388,140.697 222.388 C 140.888 222.388,141.045 221.968,141.045 221.455 C 141.045 220.421,140.986 220.413,137.201 220.897 M246.928 224.897 C 247.599 224.980,248.606 224.979,249.167 224.893 C 249.728 224.808,249.179 224.740,247.948 224.742 C 246.716 224.745,246.258 224.814,246.928 224.897 M133.675 226.003 C 134.667 226.263,134.455 226.866,133.374 226.866 C 132.759 226.866,132.511 226.715,132.679 226.444 C 132.839 226.186,132.739 226.096,132.421 226.211 C 132.136 226.315,131.943 226.582,131.992 226.806 C 132.041 227.029,131.831 227.116,131.525 226.999 C 131.110 226.839,130.970 227.068,130.970 227.905 C 130.970 228.556,131.204 229.115,131.530 229.239 C 131.863 229.367,132.090 229.243,132.090 228.933 C 132.090 227.527,133.306 227.133,133.827 228.370 C 134.531 230.045,134.473 231.032,133.675 230.951 C 132.440 230.825,132.351 230.972,133.209 231.716 C 134.799 233.096,135.448 232.731,135.448 230.456 C 135.448 228.006,134.580 225.729,133.670 225.790 C 133.061 225.830,133.061 225.843,133.675 226.003 M258.209 226.679 C 258.209 227.006,257.869 227.239,257.391 227.239 C 256.592 227.239,256.590 227.226,257.298 226.691 C 258.206 226.004,258.209 226.004,258.209 226.679 M255.076 227.425 C 254.363 227.965,253.731 227.867,253.731 227.217 C 253.731 227.024,254.193 226.871,254.757 226.878 C 255.730 226.889,255.746 226.918,255.076 227.425 M215.080 228.537 C 214.801 229.650,214.810 229.665,215.978 230.024 C 216.777 230.270,216.834 230.195,216.724 229.048 C 216.571 227.457,215.440 227.105,215.080 228.537 M249.631 231.280 C 248.675 231.425,247.761 231.125,247.761 230.664 C 247.761 230.483,248.363 230.520,249.099 230.746 C 250.165 231.073,250.273 231.182,249.631 231.280 M201.630 231.151 C 201.500 231.489,201.584 231.957,201.816 232.189 C 202.049 232.422,202.239 233.166,202.239 233.843 C 202.239 234.521,202.415 235.075,202.631 235.075 C 203.201 235.075,202.916 230.881,202.332 230.689 C 202.076 230.604,201.760 230.812,201.630 231.151 M155.461 235.944 C 154.305 237.037,153.358 238.052,153.358 238.198 C 153.358 238.344,153.022 238.825,152.612 239.265 C 152.201 239.706,151.866 240.225,151.866 240.420 C 151.866 240.767,158.274 234.820,158.520 234.246 C 158.916 233.319,157.272 234.231,155.461 235.944 M212.900 235.728 C 213.010 236.702,213.208 238.088,213.340 238.806 C 213.601 240.229,213.667 240.766,213.751 242.133 C 213.781 242.629,213.917 242.923,214.054 242.787 C 214.422 242.419,214.192 237.930,213.784 237.519 C 213.591 237.324,213.433 236.442,213.433 235.560 C 213.433 234.677,213.268 233.955,213.067 233.955 C 212.851 233.955,212.783 234.682,212.900 235.728 M267.058 236.425 C 266.076 237.098,265.291 237.778,265.313 237.938 C 265.336 238.097,265.151 238.296,264.901 238.379 C 264.652 238.462,264.554 238.359,264.683 238.150 C 264.812 237.942,264.296 238.088,263.536 238.475 C 262.777 238.862,261.847 239.179,261.470 239.179 C 260.728 239.179,256.869 242.814,257.229 243.174 C 257.349 243.294,258.203 242.697,259.126 241.846 C 260.049 240.995,261.149 240.299,261.571 240.299 C 262.288 240.299,266.006 238.615,266.418 238.103 C 266.521 237.976,267.032 237.652,267.555 237.384 C 268.577 236.858,269.561 235.571,269.115 235.343 C 268.966 235.266,268.040 235.753,267.058 236.425 M165.299 238.060 C 165.299 238.265,165.540 238.433,165.836 238.433 C 166.132 238.433,166.478 238.265,166.604 238.060 C 166.731 237.854,166.489 237.687,166.067 237.687 C 165.644 237.687,165.299 237.854,165.299 238.060 M198.241 239.366 C 198.244 240.392,198.316 240.767,198.402 240.200 C 198.488 239.633,198.486 238.793,198.397 238.334 C 198.308 237.875,198.238 238.340,198.241 239.366 M204.282 238.191 C 202.626 240.045,202.361 241.183,202.131 247.402 C 202.006 250.780,202.052 253.881,202.232 254.291 C 202.439 254.763,202.569 252.882,202.586 249.178 C 202.612 243.356,202.696 242.852,204.185 239.622 C 204.938 237.988,204.977 237.412,204.282 238.191 M177.519 239.392 C 177.365 239.549,177.239 239.976,177.239 240.342 C 177.239 240.708,176.677 241.435,175.991 241.959 C 174.701 242.943,173.134 243.231,173.134 242.485 C 173.134 241.522,171.953 241.177,169.707 241.484 C 168.389 241.664,167.214 241.644,166.824 241.436 C 166.081 241.038,164.552 241.321,164.552 241.857 C 164.552 242.050,164.384 242.104,164.179 241.978 C 163.974 241.851,163.806 242.016,163.806 242.346 C 163.806 242.836,164.060 242.896,165.205 242.680 C 167.506 242.246,172.495 242.302,172.650 242.764 C 173.328 244.791,175.290 244.523,177.171 242.145 C 177.948 241.163,178.268 238.630,177.519 239.392 M160.149 240.746 C 159.903 240.993,159.701 241.438,159.701 241.736 C 159.701 242.104,159.941 242.002,160.448 241.418 C 161.456 240.255,161.205 239.691,160.149 240.746 M218.284 241.231 C 218.284 241.744,218.451 242.164,218.657 242.164 C 218.862 242.164,219.030 241.744,219.030 241.231 C 219.030 240.718,218.862 240.299,218.657 240.299 C 218.451 240.299,218.284 240.718,218.284 241.231 M167.817 240.942 C 168.484 241.024,169.576 241.024,170.243 240.942 C 170.910 240.859,170.364 240.791,169.030 240.791 C 167.696 240.791,167.150 240.859,167.817 240.942 M158.675 242.962 C 157.349 244.301,158.634 247.220,161.057 248.369 C 161.779 248.712,162.628 249.387,162.944 249.869 C 163.369 250.518,163.864 250.746,164.847 250.746 L 166.175 250.746 165.302 249.817 C 164.822 249.306,163.363 248.194,162.061 247.345 C 159.790 245.865,159.501 245.455,159.246 243.353 C 159.162 242.660,159.050 242.583,158.675 242.962 M197.314 245.723 C 197.207 247.152,197.225 249.244,197.355 250.373 L 197.591 252.425 197.859 250.933 C 198.203 249.012,198.165 244.803,197.796 243.858 C 197.603 243.364,197.446 243.971,197.314 245.723 M145.522 245.692 C 145.522 246.836,145.676 248.063,145.864 248.419 C 146.053 248.776,146.409 249.613,146.656 250.280 C 146.903 250.947,147.218 251.493,147.357 251.493 C 147.495 251.493,148.281 252.122,149.105 252.892 C 150.031 253.757,150.893 254.248,151.365 254.179 C 151.847 254.108,152.650 254.588,153.551 255.485 C 154.334 256.265,155.157 256.839,155.379 256.760 C 156.736 256.280,158.975 255.916,160.261 255.965 C 165.324 256.162,168.649 255.568,169.942 254.236 C 171.528 252.603,172.293 250.876,171.696 250.278 C 171.375 249.957,171.269 249.964,171.269 250.306 C 171.269 253.046,168.236 254.723,162.687 255.052 C 160.326 255.192,158.208 255.457,157.979 255.642 C 157.723 255.849,157.149 255.762,156.487 255.417 C 155.895 255.108,155.046 254.854,154.601 254.853 C 153.549 254.850,152.612 254.483,152.612 254.074 C 152.612 253.896,153.158 253.830,153.825 253.928 L 155.037 254.105 153.918 253.738 C 153.302 253.535,152.485 253.469,152.101 253.590 C 151.343 253.829,149.627 253.077,149.627 252.506 C 149.627 252.312,150.041 252.424,150.547 252.756 C 151.052 253.087,151.598 253.353,151.759 253.347 C 151.920 253.340,151.452 252.962,150.718 252.507 C 147.247 250.354,146.269 248.948,146.269 246.109 C 146.269 244.990,146.101 243.970,145.896 243.843 C 145.664 243.700,145.522 244.401,145.522 245.692 M214.383 244.722 C 214.262 245.103,214.324 245.816,214.521 246.308 C 214.835 247.094,214.881 247.010,214.902 245.616 C 214.927 243.922,214.739 243.599,214.383 244.722 M253.731 246.620 C 253.731 247.042,253.899 247.388,254.104 247.388 C 254.310 247.388,254.478 247.146,254.478 246.850 C 254.478 246.555,254.310 246.209,254.104 246.082 C 253.899 245.955,253.731 246.197,253.731 246.620 M236.070 247.264 C 235.751 247.582,235.814 251.019,236.160 252.239 C 236.416 253.139,236.434 253.128,236.683 251.912 C 237.271 249.034,236.925 246.408,236.070 247.264 M237.313 247.761 C 237.313 248.176,237.562 248.507,237.873 248.507 C 238.184 248.507,238.433 248.176,238.433 247.761 C 238.433 247.347,238.184 247.015,237.873 247.015 C 237.562 247.015,237.313 247.347,237.313 247.761 M256.767 249.506 C 255.800 253.663,250.435 259.674,247.668 259.699 C 247.514 259.700,247.388 259.953,247.388 260.261 C 247.388 260.601,247.058 260.811,246.549 260.795 C 245.741 260.769,245.738 260.755,246.455 260.414 C 247.084 260.115,247.054 260.097,246.269 260.296 C 242.231 261.320,239.594 260.330,238.468 257.369 C 238.254 256.805,237.892 256.343,237.665 256.343 C 237.437 256.343,237.307 256.469,237.376 256.623 C 239.092 260.488,240.758 261.945,243.452 261.935 C 249.391 261.913,257.836 254.235,257.836 248.857 C 257.836 247.020,257.264 247.367,256.767 249.506 M215.117 248.230 C 214.966 248.591,214.968 249.515,215.121 250.283 C 215.398 251.673,215.400 251.674,215.690 250.653 C 216.053 249.371,215.542 247.211,215.117 248.230 M159.783 250.058 C 159.875 250.334,160.249 250.618,160.615 250.689 C 161.040 250.771,161.220 250.637,161.113 250.315 C 161.021 250.039,160.646 249.755,160.281 249.685 C 159.855 249.602,159.676 249.737,159.783 250.058 M184.178 250.314 C 184.058 250.509,184.229 250.771,184.558 250.898 C 185.028 251.078,185.101 251.426,184.900 252.523 C 184.708 253.568,184.751 253.813,185.071 253.501 C 185.605 252.979,185.414 250.294,184.829 250.102 C 184.591 250.024,184.298 250.120,184.178 250.314 M216.139 253.545 C 216.143 254.366,216.219 254.658,216.309 254.193 C 216.398 253.729,216.395 253.058,216.301 252.701 C 216.208 252.344,216.135 252.724,216.139 253.545 M236.806 253.917 C 236.687 254.225,236.743 254.855,236.929 255.317 C 237.222 256.046,237.269 255.972,237.290 254.757 C 237.315 253.274,237.157 253.001,236.806 253.917 M156.533 254.483 C 156.658 254.685,157.282 254.851,157.920 254.851 C 159.330 254.851,159.187 254.665,157.537 254.350 C 156.768 254.204,156.391 254.254,156.533 254.483 M181.207 255.157 C 181.038 255.839,180.999 256.497,181.121 256.619 C 181.543 257.040,181.769 256.411,181.642 255.166 L 181.515 253.918 181.207 255.157 M184.435 255.784 C 184.438 256.810,184.510 257.185,184.596 256.618 C 184.682 256.051,184.680 255.211,184.591 254.752 C 184.502 254.293,184.432 254.757,184.435 255.784 M220.193 254.354 C 220.169 254.594,220.041 255.097,219.908 255.473 C 219.720 256.004,219.770 256.061,220.129 255.730 C 220.384 255.495,220.512 254.991,220.414 254.611 C 220.316 254.230,220.216 254.114,220.193 254.354 M196.706 257.276 C 196.695 259.100,196.765 259.365,197.084 258.705 C 197.353 258.148,197.357 257.447,197.097 256.466 C 196.723 255.054,196.719 255.064,196.706 257.276 M216.847 257.889 C 216.785 260.209,217.382 260.904,218.435 259.740 C 219.393 258.681,219.215 257.531,218.125 257.739 C 217.364 257.885,217.196 257.744,217.062 256.848 C 216.974 256.262,216.878 256.731,216.847 257.889 M148.881 256.725 C 148.881 257.301,149.994 259.303,150.900 260.354 C 151.696 261.279,152.953 261.450,153.672 260.731 C 154.040 260.363,154.446 260.596,155.660 261.872 C 157.300 263.596,157.368 263.600,159.696 262.130 C 160.837 261.410,161.210 260.948,161.124 260.364 C 160.972 259.331,160.075 259.030,160.075 260.013 C 160.075 260.886,157.822 262.428,157.004 262.114 C 156.706 261.999,156.088 261.242,155.632 260.430 C 154.691 258.755,154.813 258.819,153.592 259.375 C 153.048 259.623,152.752 260.004,152.868 260.308 C 152.985 260.612,152.821 260.821,152.465 260.821 C 152.136 260.821,151.866 260.598,151.866 260.326 C 151.866 260.054,151.446 259.437,150.933 258.955 C 150.420 258.473,150.000 257.928,150.000 257.744 C 150.000 257.560,149.748 257.158,149.440 256.850 C 149.085 256.494,148.881 256.449,148.881 256.725 M201.328 259.011 C 200.989 261.937,199.902 263.516,197.112 265.134 C 196.135 265.701,195.190 266.409,195.012 266.709 C 194.780 267.100,194.614 267.132,194.423 266.823 C 194.276 266.586,193.877 266.500,193.536 266.631 C 193.194 266.762,193.008 267.020,193.121 267.203 C 193.312 267.513,192.089 267.733,191.231 267.543 C 191.026 267.498,190.019 267.323,188.993 267.154 C 186.097 266.678,186.045 266.657,184.297 265.292 C 182.112 263.584,181.745 263.082,181.715 261.754 C 181.683 260.314,180.815 258.674,180.422 259.310 C 180.266 259.561,180.327 259.953,180.555 260.182 C 180.783 260.410,180.970 260.962,180.970 261.408 C 180.970 262.271,182.553 265.351,183.314 265.969 C 189.962 271.369,203.307 265.916,201.945 258.356 L 201.616 256.530 201.328 259.011 M244.496 261.457 C 244.035 261.546,243.279 261.546,242.817 261.457 C 242.355 261.368,242.733 261.296,243.657 261.296 C 244.580 261.296,244.958 261.368,244.496 261.457 M158.833 280.443 C 159.070 281.062,152.930 281.179,150.000 280.613 C 149.076 280.435,148.265 280.344,148.197 280.411 C 148.010 280.597,156.542 284.671,159.118 285.626 C 161.328 286.446,165.560 287.271,163.993 286.577 C 163.582 286.395,162.874 286.235,162.418 286.220 C 161.963 286.206,161.018 285.873,160.318 285.480 C 159.618 285.087,158.648 284.690,158.161 284.598 C 157.674 284.505,162.481 284.409,168.843 284.384 L 180.410 284.338 178.545 285.223 C 177.519 285.710,176.091 286.283,175.373 286.496 C 174.116 286.868,174.130 286.875,175.746 286.663 C 177.628 286.416,180.785 285.118,182.567 283.857 C 185.121 282.050,187.461 280.111,186.754 280.388 C 185.022 281.066,179.104 281.112,179.104 280.448 C 179.104 279.958,178.957 279.903,178.417 280.192 C 175.558 281.722,168.255 282.590,165.112 281.774 C 163.013 281.228,161.204 280.720,159.819 280.288 C 158.847 279.984,158.668 280.013,158.833 280.443 M227.425 280.462 C 228.196 281.069,217.050 281.052,215.112 280.444 C 214.114 280.130,217.344 281.727,219.428 282.578 C 220.338 282.949,221.349 283.396,221.675 283.570 C 223.116 284.340,231.380 286.514,233.582 286.703 C 236.433 286.948,236.180 286.725,233.022 286.210 C 229.238 285.592,228.358 285.375,228.358 285.056 C 228.358 284.887,227.813 284.681,227.146 284.598 C 226.479 284.516,231.642 284.448,238.619 284.448 C 245.597 284.448,250.760 284.516,250.093 284.598 C 249.426 284.681,248.881 284.906,248.881 285.098 C 248.881 285.290,248.387 285.448,247.783 285.448 C 247.180 285.448,246.582 285.616,246.455 285.821 C 246.328 286.026,245.605 286.221,244.847 286.254 C 243.498 286.312,243.494 286.316,244.663 286.463 C 246.379 286.677,252.765 284.663,256.805 282.635 C 260.009 281.026,262.090 279.686,260.261 280.409 C 258.652 281.046,250.237 281.116,250.477 280.490 C 250.664 280.003,250.519 279.974,249.509 280.295 C 242.797 282.431,235.318 282.419,227.985 280.259 C 226.760 279.899,226.725 279.911,227.425 280.462 M288.517 280.289 C 288.573 280.561,288.451 280.762,288.246 280.735 C 288.041 280.708,287.034 280.568,286.007 280.424 C 283.789 280.113,284.063 280.621,286.567 281.460 C 287.491 281.769,289.567 282.634,291.181 283.381 C 295.312 285.293,295.775 284.900,292.299 282.434 C 288.553 279.775,288.391 279.684,288.517 280.289 M165.392 287.198 C 165.751 287.291,166.339 287.291,166.698 287.198 C 167.057 287.104,166.763 287.027,166.045 287.027 C 165.326 287.027,165.033 287.104,165.392 287.198 M171.926 287.204 C 172.390 287.293,173.062 287.290,173.419 287.197 C 173.775 287.103,173.396 287.030,172.575 287.034 C 171.754 287.039,171.462 287.115,171.926 287.204 M237.593 287.210 C 238.260 287.293,239.352 287.293,240.019 287.210 C 240.686 287.127,240.140 287.060,238.806 287.060 C 237.472 287.060,236.926 287.127,237.593 287.210 M168.750 287.571 C 169.109 287.664,169.697 287.664,170.056 287.571 C 170.415 287.477,170.121 287.400,169.403 287.400 C 168.685 287.400,168.391 287.477,168.750 287.571 " stroke="none" fill="#5599df" fill-rule="evenodd"></path></g></svg>